<?xml version="1.0" encoding="UTF-8"?>
<svg width="26px" height="26px" viewBox="0 0 26 26" version="1.1" xmlns="http://www.w3.org/2000/svg" xmlns:xlink="http://www.w3.org/1999/xlink">
    <!-- Generator: Sketch 52.6 (67491) - http://www.bohemiancoding.com/sketch -->
    <title>Iconos/area-privada</title>
    <desc>Created with Sketch.</desc>
    <g id="Iconos/area-privada" stroke="none" stroke-width="1" fill="none" fill-rule="evenodd">
        <path d="M13.5,2.02229712 C15.6932195,2.02229712 17.4778063,3.82214156 17.4778063,6.02644542 C17.4778063,8.23749028 15.6932195,10.0305937 13.5,10.0305937 C11.3067805,10.0305937 9.52286363,8.23749028 9.52286363,6.02644542 C9.52286363,3.82214156 11.3067805,2.02229712 13.5,2.02229712 Z M13.5,12.0528908 C16.8012175,12.0528908 19.487476,9.34975369 19.487476,6.02644542 C19.487476,2.70313715 16.8012175,0 13.5,0 C10.1987825,0 7.51319392,2.70313715 7.51319392,6.02644542 C7.51319392,9.34975369 10.1987825,12.0528908 13.5,12.0528908 Z M22.9903303,23.9777029 L4.00966972,23.9777029 L4.00966972,19.2859736 C4.00966972,18.0995592 4.47122386,16.9401089 5.24427681,16.178377 C5.63951185,15.7873995 6.29064484,15.3155302 7.21978214,15.3424942 C7.73224792,15.3559761 9.31988699,15.3357532 11.2505097,15.3290122 C14.1350556,15.3155302 17.7732277,15.2953072 19.6556183,15.2953072 C21.9466418,15.2953072 22.9903303,17.1760436 22.9903303,18.9219601 L22.9903303,23.9777029 Z M19.6556183,13.2730101 C17.771218,13.2730101 14.1290266,13.2932331 11.2411312,13.3067151 C9.32457622,13.3134561 7.74162638,13.320197 7.24724763,13.320197 C7.24523796,13.320197 7.2425584,13.320197 7.23987884,13.320197 C5.99522339,13.2999741 4.78406245,13.7988074 3.83683812,14.735805 C2.68663715,15.8682914 2,17.567021 2,19.2859736 L2,24.9888514 C2,25.5416127 2.44949613,26 3.00483486,26 L23.9951651,26 C24.549834,26 25,25.5416127 25,24.9888514 L25,18.9219601 C25,16.185118 23.1269878,13.2730101 19.6556183,13.2730101 Z" id="area-privada" fill="#E20613"></path>
    </g>
</svg>