<?xml version="1.0" encoding="UTF-8"?>
<svg width="26px" height="26px" viewBox="0 0 26 26" version="1.1" xmlns="http://www.w3.org/2000/svg" xmlns:xlink="http://www.w3.org/1999/xlink">
    <!-- Generator: Sketch 52.6 (67491) - http://www.bohemiancoding.com/sketch -->
    <title>Iconos/email</title>
    <desc>Created with Sketch.</desc>
    <g id="Iconos/email" stroke="none" stroke-width="1" fill="none" fill-rule="evenodd">
        <path d="M23.8894636,19.7988728 L2.11053645,19.7988728 C1.94712063,19.7988728 1.80903124,19.6613865 1.80903124,19.4973676 L1.80903124,6.64239163 L12.5046269,13.6427395 C12.6553795,13.7410302 12.8272375,13.7910801 12.9996985,13.7910801 C13.1751745,13.7910801 13.3500475,13.7404272 13.5020062,13.6391215 L24.1909688,6.50611128 L24.1909688,19.4973676 C24.1909688,19.6613865 24.0528794,19.7988728 23.8894636,19.7988728 Z M21.9755085,5.80903124 L12.9954774,11.8023517 L3.8393673,5.80903124 L21.9755085,5.80903124 Z M25.3360855,4.58190505 C25.2257346,4.43899158 25.0810121,4.33647981 24.9200083,4.28039984 C24.6136791,4.10733585 24.2657421,4 23.8894636,4 L2.11053645,4 C0.94732936,4 0,4.94672635 0,6.11053645 L0,19.4973676 C0,20.6611777 0.94732936,21.6079041 2.11053645,21.6079041 L23.8894636,21.6079041 C25.0526706,21.6079041 26,20.6611777 26,19.4973676 L26,6.11053645 C26,5.50812904 25.7425146,4.9672287 25.3360855,4.58190505 Z" id="email" fill="#E20613"></path>
    </g>
</svg>