<?xml version="1.0" encoding="UTF-8"?>
<svg width="40px" height="40px" viewBox="0 0 40 40" version="1.1" xmlns="http://www.w3.org/2000/svg" xmlns:xlink="http://www.w3.org/1999/xlink">
    <!-- Generator: Sketch 52.5 (67469) - http://www.bohemiancoding.com/sketch -->
    <title>ico/empleo</title>
    <desc>Created with Sketch.</desc>
    <g id="ico/empleo" stroke="none" stroke-width="1" fill="none" fill-rule="evenodd">
        <g id="noun_job_2043873" transform="translate(0.000000, 2.000000)" fill="#E84349" fill-rule="nonzero">
            <path d="M34.4058885,5.62281723 L27.2975815,5.62281723 L27.2975815,2.72991851 C27.2975815,1.22235157 26.0357518,0 24.4794953,0 L15.4784437,0 C13.9221872,0 12.6603575,1.22235157 12.6603575,2.72991851 L12.6603575,5.62281723 L5.55205047,5.62281723 C2.48159832,5.62281723 0,8.02677532 0,11.0011641 L0,29.6216531 C0,32.5960419 2.48159832,35 5.55205047,35 L34.4479495,35 C37.5184017,35 40,32.5960419 40,29.6216531 L40,11.0011641 C39.957939,8.02677532 37.4763407,5.62281723 34.4058885,5.62281723 Z M14.8054679,2.72991851 C14.8054679,2.36321304 15.0998948,2.07799767 15.4784437,2.07799767 L24.4794953,2.07799767 C24.8580442,2.07799767 25.1524711,2.36321304 25.1524711,2.72991851 L25.1524711,5.62281723 L14.8054679,5.62281723 L14.8054679,2.72991851 Z M5.55205047,7.7008149 L34.4479495,7.7008149 C36.298633,7.7008149 37.8548896,9.16763679 37.8548896,11.0011641 L37.8548896,15.1571595 C33.9432177,16.298021 29.3585699,17.0314319 24.5636172,17.3166473 L24.5636172,16.4202561 C24.5636172,15.2386496 23.5541535,14.2607683 22.3343849,14.2607683 L17.7076761,14.2607683 C16.4879075,14.2607683 15.4784437,15.2386496 15.4784437,16.4202561 L15.4784437,17.3166473 C10.6834911,17.0314319 6.09884332,16.298021 2.1871714,15.1571595 L2.1871714,11.0011641 C2.14511041,9.16763679 3.65930599,7.7008149 5.55205047,7.7008149 Z M22.3764458,16.4202561 L22.3764458,20.3725262 C22.3764458,20.4132712 22.3343849,20.4540163 22.2923239,20.4540163 L17.6235542,20.3725262 L17.7076761,16.298021 L22.3764458,16.4202561 Z M34.4058885,32.8812573 L5.55205047,32.8812573 C3.70136698,32.8812573 2.14511041,31.4144354 2.14511041,29.580908 L2.14511041,17.3166473 C6.09884332,18.4167637 10.6414301,19.1094296 15.4363828,19.3946449 L15.4363828,20.3725262 C15.4363828,21.5541327 16.4458465,22.532014 17.6656151,22.532014 L22.2082019,22.532014 C23.4279706,22.532014 24.4374343,21.5541327 24.4374343,20.3725262 L24.4374343,19.3946449 C29.2744479,19.1094296 33.8590957,18.4167637 37.8128286,17.3166473 L37.8128286,29.6216531 C37.8128286,31.4144354 36.298633,32.8812573 34.4058885,32.8812573 Z" id="Shape"></path>
        </g>
    </g>
</svg>