<?xml version="1.0" encoding="UTF-8"?>
<svg width="26px" height="26px" viewBox="0 0 26 26" version="1.1" 
    xmlns="http://www.w3.org/2000/svg" 
    xmlns:xlink="http://www.w3.org/1999/xlink">
    <!-- Generator: Sketch 52.1 (67048) - http://www.bohemiancoding.com/sketch -->
    <title>6F</title>
    <desc>Created with Sketch.</desc>
    <g id="Symbols" stroke="none" stroke-width="1" fill="none" fill-rule="evenodd">
        <g id="Iconos/buscar" fill="#000000">
            <g id="6F" transform="translate(13.000000, 13.000000) rotate(270.000000) translate(-13.000000, -13.000000) ">
                <path d="M15.4333333,18.2933333 C13.2233333,18.2933333 11.2186667,17.4066667 9.75333333,15.9666667 C9.75133333,15.9666667 9.75066667,15.96 9.74866667,15.96 C9.74533333,15.96 9.74066667,15.9533333 9.73733333,15.9533333 C8.244,14.48 7.31533333,12.4333333 7.31533333,10.18 C7.31533333,5.7 10.9573333,2.06 15.4333333,2.06 C19.9093333,2.06 23.5513333,5.7 23.5513333,10.18 C23.5513333,14.6533333 19.9093333,18.2933333 15.4333333,18.2933333 Z M15.4333333,0.06 C9.85466667,0.06 5.31533333,4.6 5.31533333,10.18 C5.31533333,12.6333333 6.196,14.8866667 7.65533333,16.64 L0.754666667,23.54 C0.364,23.9333333 0.364,24.56 0.754666667,24.9533333 C0.95,25.1466667 1.206,25.2466667 1.462,25.2466667 C1.718,25.2466667 1.97333333,25.1466667 2.16866667,24.9533333 L9.08133333,18.04 C10.8193333,19.4466667 13.0286667,20.2933333 15.4333333,20.2933333 C21.0126667,20.2933333 25.5513333,15.7533333 25.5513333,10.18 C25.5513333,4.6 21.0126667,0.06 15.4333333,0.06 Z"></path>
            </g>
        </g>
    </g>
</svg>